<?xml version="1.0" standalone="no"?>
<!DOCTYPE svg PUBLIC "-//W3C//DTD SVG 20010904//EN"
 "http://www.w3.org/TR/2001/REC-SVG-20010904/DTD/svg10.dtd">
<svg version="1.0" xmlns="http://www.w3.org/2000/svg"
 width="1500.000000pt" height="1500.000000pt" viewBox="0 0 1500.000000 1500.000000"
 preserveAspectRatio="xMidYMid meet">
<metadata>
Created by potrace 1.14, written by Peter Selinger 2001-2017
</metadata>
<g transform="translate(0.000000,1500.000000) scale(0.100000,-0.100000)"
fill="#000000" stroke="none">
<path d="M7025 10089 c-185 -18 -210 -22 -341 -49 -191 -39 -366 -99 -539
-185 -221 -109 -361 -210 -541 -389 -207 -208 -328 -387 -461 -686 -66 -147
-142 -398 -168 -552 -3 -18 -10 -59 -16 -90 -5 -32 -12 -79 -15 -105 -2 -27
-6 -58 -9 -70 -17 -99 -24 -490 -12 -679 28 -407 133 -812 296 -1134 55 -108
165 -297 181 -310 3 -3 17 -21 30 -40 13 -19 55 -73 94 -120 188 -226 436
-424 679 -544 173 -84 247 -110 497 -177 52 -14 213 -39 305 -47 152 -14 614
-6 700 12 11 2 43 7 70 10 150 20 387 85 503 137 239 108 377 197 519 336 236
231 400 529 517 938 29 104 71 304 81 388 l6 57 -623 0 -624 0 -13 -67 c-26
-130 -108 -336 -179 -447 -172 -269 -430 -411 -737 -407 -408 5 -724 254 -869
683 -37 109 -80 292 -91 388 -3 30 -8 62 -10 70 -4 14 -12 107 -21 240 -6 84
-5 517 1 585 2 33 7 90 10 127 3 37 8 75 9 85 2 10 7 43 11 73 4 30 9 64 12
75 2 11 6 34 9 50 28 162 113 379 201 512 162 246 427 377 754 376 256 -2 462
-81 624 -239 54 -53 145 -171 145 -189 0 -4 8 -19 18 -33 38 -56 102 -236 117
-330 3 -20 7 -38 10 -40 3 -4 1196 -6 1238 -3 13 1 -8 157 -37 276 -116 477
-402 886 -814 1162 -168 112 -509 264 -649 288 -18 3 -43 9 -57 15 -15 5 -26
8 -26 5 0 -2 -14 0 -31 5 -18 5 -67 14 -110 20 -43 6 -93 13 -111 16 -51 9
-455 11 -533 3z"/>
<path d="M12097 10094 c-1 -1 -49 -4 -107 -8 -58 -3 -118 -8 -135 -11 -16 -2
-49 -6 -72 -9 -22 -3 -52 -7 -65 -10 -12 -3 -38 -7 -56 -10 -97 -13 -319 -78
-457 -133 -474 -190 -817 -525 -946 -923 -49 -150 -66 -268 -66 -447 -1 -281
42 -488 142 -698 168 -350 506 -611 945 -729 79 -21 193 -45 330 -70 14 -3
108 -21 210 -40 102 -20 199 -39 215 -41 17 -3 64 -12 105 -20 126 -24 134
-26 165 -31 77 -14 320 -76 405 -104 188 -63 339 -165 388 -263 29 -57 41
-132 37 -217 -9 -149 -74 -250 -230 -352 -76 -50 -241 -107 -355 -123 -24 -4
-47 -8 -50 -10 -31 -19 -417 -23 -502 -6 -29 6 -62 13 -73 15 -246 48 -455
184 -567 367 -35 58 -80 164 -92 219 l-5 25 -605 0 c-332 0 -607 -3 -610 -5
-5 -5 1 -54 19 -165 12 -73 54 -211 89 -291 50 -117 83 -175 159 -277 244
-328 599 -563 1062 -705 110 -33 271 -69 388 -86 27 -4 59 -9 70 -12 131 -25
656 -25 807 0 14 3 61 10 105 16 293 42 615 153 860 295 270 157 496 391 610
630 91 190 120 339 112 575 -6 168 -7 179 -33 331 -38 230 -115 417 -247 599
-92 127 -292 297 -457 387 -156 85 -442 183 -640 218 -19 4 -57 11 -85 15 -87
16 -109 20 -135 26 -13 3 -38 7 -55 10 -16 2 -41 6 -55 9 -14 3 -41 8 -60 11
-19 4 -44 8 -55 11 -65 12 -346 64 -375 69 -63 10 -203 45 -285 71 -240 77
-347 168 -391 333 -14 52 -19 150 -10 195 20 100 51 157 119 227 69 70 136
108 268 152 133 45 207 55 379 56 535 1 829 -193 885 -582 l7 -48 595 0 595 0
-6 78 c-29 371 -163 669 -416 923 -180 180 -412 321 -700 424 -41 15 -86 29
-99 31 -14 3 -56 14 -95 24 -39 10 -99 24 -133 30 -35 5 -75 12 -90 15 -142
24 -305 36 -516 39 -76 1 -139 1 -140 0z"/>
<path d="M659 10003 c-1 -37 -1 -4959 0 -5000 l1 -33 1814 0 1813 0 0 500 1
500 -472 0 c-530 1 -1947 7 -1958 9 -5 0 -8 237 -8 526 l0 525 58 1 c31 0 494
1 1027 1 l971 1 0 481 c0 264 -3 483 -7 486 -4 3 -464 5 -1023 5 -898 0 -1016
2 -1016 15 -1 22 -1 939 0 981 l0 36 1195 0 c657 0 1197 2 1199 4 3 3 7 226 9
497 l4 492 -1804 0 -1803 0 -1 -27z"/>
</g>
</svg>
